Run_20002
nRows=4
nColumns=164

# SIMM Motion File Header:
name Run_20002
datacolumns 164
datarows 4
otherdata 1
range 1.39000000 1.42000000
endheader
time	pelvis_tilt	pelvis_list	pelvis_rotation	pelvis_tx	pelvis_ty	pelvis_tz	hip_flexion_r	hip_adduction_r	hip_rotation_r	knee_angle_r	ankle_angle_r	hip_flexion_l	hip_adduction_l	hip_rotation_l	knee_angle_l	ankle_angle_l	lumbar_extension	lumbar_bending	lumbar_rotation	arm_flex_r	arm_add_r	arm_rot_r	elbow_flex_r	pro_sup_r	arm_flex_l	arm_add_l	arm_rot_l	elbow_flex_l	pro_sup_l	subtalar_angle_r	mtp_angle_r	subtalar_angle_l	mtp_angle_l	wrist_flex_r	wrist_dev_r	wrist_flex_l	wrist_dev_l	LASI_tx	LASI_ty	LASI_tz	RASI_tx	RASI_ty	RASI_tz	LPSI_tx	LPSI_ty	LPSI_tz	RPSI_tx	RPSI_ty	RPSI_tz	RTH1_tx	RTH1_ty	RTH1_tz	RTH2_tx	RTH2_ty	RTH2_tz	RTH3_tx	RTH3_ty	RTH3_tz	LTH1_tx	LTH1_ty	LTH1_tz	LTH2_tx	LTH2_ty	LTH2_tz	LTH3_tx	LTH3_ty	LTH3_tz	RTB1_tx	RTB1_ty	RTB1_tz	RTB2_tx	RTB2_ty	RTB2_tz	RTB3_tx	RTB3_ty	RTB3_tz	LTB1_tx	LTB1_ty	LTB1_tz	LTB2_tx	LTB2_ty	LTB2_tz	LTB3_tx	LTB3_ty	LTB3_tz	RCAL_tx	RCAL_ty	RCAL_tz	RTOE_tx	RTOE_ty	RTOE_tz	RMT5_tx	RMT5_ty	RMT5_tz	LCAL_tx	LCAL_ty	LCAL_tz	LTOE_tx	LTOE_ty	LTOE_tz	LMT5_tx	LMT5_ty	LMT5_tz	LACR_tx	LACR_ty	LACR_tz	RACR_tx	RACR_ty	RACR_tz	CLAV_tx	CLAV_ty	CLAV_tz	C7_tx	C7_ty	C7_tz	RUA1_tx	RUA1_ty	RUA1_tz	RUA2_tx	RUA2_ty	RUA2_tz	RUA3_tx	RUA3_ty	RUA3_tz	RLEL_tx	RLEL_ty	RLEL_tz	RMEL_tx	RMEL_ty	RMEL_tz	LUA1_tx	LUA1_ty	LUA1_tz	LUA2_tx	LUA2_ty	LUA2_tz	LUA3_tx	LUA3_ty	LUA3_tz	LLEL_tx	LLEL_ty	LLEL_tz	LMEL_tx	LMEL_ty	LMEL_tz	RFAsuperior_tx	RFAsuperior_ty	RFAsuperior_tz	RFAradius_tx	RFAradius_ty	RFAradius_tz	RFAulna_tx	RFAulna_ty	RFAulna_tz	LFAsuperior_tx	LFAsuperior_ty	LFAsuperior_tz	LFAradius_tx	LFAradius_ty	LFAradius_tz	LFAulna_tx	LFAulna_ty	LFAulna_tz
      1.39000000	     -3.84959095	      0.69480740	      0.29660762	      0.90624179	      0.97597072	     -0.29257319	     -3.50928805	      2.28026278	     -9.54057650	    -22.22491470	     12.68175455	     36.33304662	      4.06100030	      0.37297933	    -57.59373783	      3.26594410	     -8.72495581	     -0.52473449	     13.27188009	    -15.31955030	    -25.39053950	     -1.81590686	    105.25843217	     85.18502003	    -27.89791800	    -21.29554099	     -0.78147407	    108.07555962	    114.64461373	      0.00000000	      0.00000000	      0.00000000	      0.00000000	      0.00000000	      0.00000000	      0.00000000	      0.00000000	      0.91117289	      0.99441921	     -0.41726380	      0.90823234	      0.99297058	     -0.17158468	      0.75028505	      1.04029254	     -0.34602408	      0.74605926	      1.03815636	     -0.24653561	      0.82038135	      0.75415730	     -0.12587842	      0.86538479	      0.66371928	     -0.14363426	      0.78770161	      0.58156650	     -0.15942191	      0.93450984	      0.81910388	     -0.46310151	      1.02941193	      0.75045602	     -0.44267113	      1.01893598	      0.62957201	     -0.42671460	      0.75248143	      0.36397138	     -0.22976635	      0.68484854	      0.30995448	     -0.18855106	      0.65413992	      0.20679585	     -0.25600451	      1.05469568	      0.44068790	     -0.35951204	      0.97438464	      0.38412220	     -0.41908422	      0.96318519	      0.27075231	     -0.35232582	      0.51385039	      0.14809021	     -0.28344540	      0.72105530	      0.06761461	     -0.28327280	      0.65809966	      0.05005662	     -0.18405898	      0.82346864	      0.19300192	     -0.33738732	      1.02004714	      0.09648327	     -0.33606906	      0.96651112	      0.08420650	     -0.43190612	      0.88676831	      1.47885621	     -0.44740164	      0.93335158	      1.46905846	     -0.15089163	      0.99243429	      1.39452486	     -0.29490728	      0.86669686	      1.50618463	     -0.29017358	      0.90917854	      1.36451800	     -0.04737955	      0.84218545	      1.30930907	     -0.03738450	      0.89407416	      1.24720197	      0.00546095	      0.87432704	      1.18427445	      0.04234171	      0.82473375	      1.15861318	     -0.01292253	      0.78292093	      1.39521689	     -0.51503333	      0.73110565	      1.34997615	     -0.46172795	      0.72902949	      1.31673659	     -0.54587795	      0.67481649	      1.24835994	     -0.56621445	      0.65882649	      1.22728865	     -0.49608615	      0.97746574	      1.15680789	     -0.00394644	      1.05892681	      1.13713285	     -0.11453059	      1.04531669	      1.07471396	     -0.08446848	      0.78778767	      1.20930502	     -0.56211933	      0.89348069	      1.13890879	     -0.49172892	      0.86261650	      1.10173925	     -0.54255625
      1.40000000	     -4.10420331	      1.12606160	      0.36845024	      0.90753873	      0.98066048	     -0.29274492	     -5.38848427	      1.79549983	    -10.10463984	    -20.11277333	      9.33555630	     35.94340716	      4.51583972	      0.13480916	    -52.06423919	      3.79111607	     -8.37879175	     -1.10784787	     13.59644673	    -15.49948623	    -25.27299318	     -2.45388797	    106.24798267	     84.69978256	    -28.88902610	    -21.39535803	     -0.74278919	    108.37711472	    113.55730722	      0.00000000	      0.00000000	      0.00000000	      0.00000000	      0.00000000	      0.00000000	      0.00000000	      0.00000000	      0.91204541	      0.99963116	     -0.41716499	      0.90931104	      0.99667278	     -0.17198083	      0.75152109	      1.04609181	     -0.34606425	      0.74762274	      1.04331596	     -0.24662614	      0.81507839	      0.75948154	     -0.12614428	      0.85721006	      0.66789103	     -0.14391467	      0.77664877	      0.58798332	     -0.15908054	      0.93447156	      0.82452797	     -0.46360272	      1.02906885	      0.75529923	     -0.44156815	      1.01723565	      0.63370197	     -0.42551194	      0.73776192	      0.37067263	     -0.22851861	      0.66873666	      0.31748300	     -0.18719748	      0.63943256	      0.21322614	     -0.25391725	      1.06023375	      0.44362054	     -0.35965553	      0.98412126	      0.38053923	     -0.41841345	      0.98331326	      0.26676404	     -0.35062230	      0.50020959	      0.15709161	     -0.28236995	      0.70241705	      0.06715615	     -0.28292781	      0.63836392	      0.05000760	     -0.18387950	      0.85063786	      0.17664407	     -0.33384920	      1.05563397	      0.09922113	     -0.33436221	      1.00238537	      0.08153643	     -0.42983868	      0.88656864	      1.48364751	     -0.44768429	      0.93542383	      1.47446171	     -0.15211565	      0.99348513	      1.39962617	     -0.29632583	      0.86797094	      1.51093515	     -0.29093377	      0.91188028	      1.37059111	     -0.04790611	      0.84462595	      1.31507237	     -0.03788297	      0.89652492	      1.25336919	      0.00532049	      0.87736007	      1.19008474	      0.04213122	      0.82816173	      1.16393546	     -0.01345745	      0.78117317	      1.40175444	     -0.51462199	      0.72986547	      1.35699681	     -0.46034022	      0.72631559	      1.32373178	     -0.54473488	      0.67083929	      1.25589998	     -0.56414956	      0.65516855	      1.23548231	     -0.49366517	      0.98083728	      1.16436293	     -0.00430772	      1.06244888	      1.14696601	     -0.11507390	      1.04973954	      1.08412171	     -0.08605802	      0.78317370	      1.21558124	     -0.56104203	      0.88892886	      1.14483551	     -0.49138936	      0.85702356	      1.10692380	     -0.54057327
      1.41000000	     -4.31098987	      1.33248159	      0.49146017	      0.90910269	      0.98497354	     -0.29300357	     -7.22441409	      1.52397624	    -10.74642195	    -18.12906895	      5.71422275	     35.24306852	      4.80388831	      0.04131214	    -46.27872761	      4.20360533	     -8.06864459	     -1.41005385	     13.82088511	    -15.77903583	    -25.17461104	     -3.05513972	    107.23673752	     84.40831035	    -29.84490763	    -21.40023723	     -0.74516591	    108.72941661	    112.78936303	      0.00000000	      0.00000000	      0.00000000	      0.00000000	      0.00000000	      0.00000000	      0.00000000	      0.00000000	      0.91307814	      1.00412704	     -0.41710331	      0.91089639	      1.00054974	     -0.17247257	      0.75285840	      1.05117724	     -0.34619561	      0.74945124	      1.04807418	     -0.24677596	      0.81050602	      0.76487492	     -0.12605578	      0.84974131	      0.67227195	     -0.14364045	      0.76643049	      0.59472400	     -0.15850632	      0.93410023	      0.82875415	     -0.46375185	      1.02769879	      0.75825066	     -0.44040171	      1.01415495	      0.63585336	     -0.42465661	      0.72414471	      0.37758394	     -0.22653273	      0.65345715	      0.32539470	     -0.18533876	      0.62581103	      0.21987082	     -0.25092375	      1.06438124	      0.44554846	     -0.35978992	      0.99349229	      0.37621779	     -0.41824900	      1.00245130	      0.26314198	     -0.34879811	      0.48766874	      0.16673531	     -0.28064857	      0.68393325	      0.06670044	     -0.28222288	      0.61887227	      0.05018017	     -0.18345678	      0.87786815	      0.16154727	     -0.33049420	      1.08935275	      0.10351308	     -0.33207782	      1.03726158	      0.08043703	     -0.42730436	      0.88668912	      1.48818379	     -0.44789000	      0.93750159	      1.47941919	     -0.15324919	      0.99449279	      1.40449977	     -0.29763996	      0.86921631	      1.51545825	     -0.29145231	      0.91440153	      1.37615767	     -0.04842434	      0.84668608	      1.32050582	     -0.03866006	      0.89839723	      1.25926494	      0.00520363	      0.87968360	      1.19560957	      0.04188470	      0.83091242	      1.16901416	     -0.01396124	      0.77984815	      1.40810744	     -0.51439335	      0.72924765	      1.36376893	     -0.45909339	      0.72428302	      1.33027827	     -0.54362128	      0.66762734	      1.26291703	     -0.56201298	      0.65236834	      1.24315579	     -0.49125931	      0.98353464	      1.17141700	     -0.00462155	      1.06519812	      1.15601813	     -0.11558273	      1.05337466	      1.09285261	     -0.08741423	      0.77940690	      1.22161341	     -0.55956389	      0.88521531	      1.15047950	     -0.49078240	      0.85246568	      1.11209067	     -0.53865801
      1.42000000	     -4.52383858	      1.35708887	      0.63515590	      0.91085194	      0.98872428	     -0.29338703	     -8.88425567	      1.40966014	    -11.40152105	    -16.43995525	      2.03673446	     34.28875814	      4.97511025	      0.08196084	    -40.29092452	      4.42879782	     -7.72741977	     -1.48024593	     13.94066738	    -16.12059160	    -25.11207107	     -3.57508660	    108.18789158	     84.27195329	    -30.79041886	    -21.28459615	     -0.85307859	    109.12461782	    112.21854331	      0.00000000	      0.00000000	      0.00000000	      0.00000000	      0.00000000	      0.00000000	      0.00000000	      0.00000000	      0.91429422	      1.00781466	     -0.41712442	      0.91286111	      1.00429117	     -0.17302780	      0.75436210	      1.05543737	     -0.34642815	      0.75152116	      1.05234088	     -0.24700791	      0.80654093	      0.77008998	     -0.12573541	      0.84298946	      0.67663496	     -0.14279112	      0.75723707	      0.60150266	     -0.15785603	      0.93353668	      0.83169715	     -0.46345791	      1.02507939	      0.75910212	     -0.43959839	      1.00965672	      0.63600398	     -0.42451965	      0.71188466	      0.38435961	     -0.22392017	      0.63947079	      0.33346882	     -0.18308956	      0.61320241	      0.22658795	     -0.24725428	      1.06703754	      0.44650963	     -0.35968914	      1.00204370	      0.37154439	     -0.41791767	      1.02007635	      0.26007374	     -0.34694972	      0.47607859	      0.17702700	     -0.27830707	      0.66562474	      0.06646644	     -0.28127294	      0.59969159	      0.05094619	     -0.18284875	      0.90436586	      0.14805973	     -0.32767133	      1.12036616	      0.10931266	     -0.32912024	      1.07044387	      0.08061862	     -0.42384530	      0.88708118	      1.49224925	     -0.44803722	      0.93939090	      1.48381006	     -0.15434651	      0.99541251	      1.40898996	     -0.29883799	      0.87037225	      1.51955527	     -0.29181726	      0.91654429	      1.38116767	     -0.04896494	      0.84828845	      1.32551234	     -0.03957762	      0.89977711	      1.26478836	      0.00507832	      0.88129861	      1.20070852	      0.04159398	      0.83299281	      1.17374139	     -0.01442094	      0.77896174	      1.41413307	     -0.51430315	      0.72924847	      1.37015652	     -0.45800802	      0.72285957	      1.33625817	     -0.54249466	      0.66512062	      1.26926896	     -0.55978882	      0.65037077	      1.25018694	     -0.48877598	      0.98560186	      1.17788117	     -0.00488535	      1.06722950	      1.16417695	     -0.11603819	      1.05626112	      1.10076761	     -0.08852515	      0.77647515	      1.22725067	     -0.55808614	      0.88236422	      1.15581370	     -0.49015378	      0.84890916	      1.11705920	     -0.53692669
